<svg xmlns="http://www.w3.org/2000/svg" viewBox="0 0 215.47 54.04"><defs><style>.cls-1{fill:#fff;}.cls-2{fill:none;stroke:#fff;stroke-miterlimit:10;stroke-width:0.67px;}</style></defs><g id="Layer_2" data-name="Layer 2"><g id="Layer_1-2" data-name="Layer 1"><path class="cls-1" d="M12.31,45.49a2.09,2.09,0,0,0-1.37-.39H9.33v3h1.61a2.09,2.09,0,0,0,1.37-.39,1.34,1.34,0,0,0,.46-1.1,1.3,1.3,0,0,0-.46-1.08m.49,5.86-1.51-2.17h-2v2.16H8V43.94H11a4.08,4.08,0,0,1,1.67.32,2.42,2.42,0,0,1,1.1.91,2.55,2.55,0,0,1,.38,1.4A2.52,2.52,0,0,1,13.75,48a2.32,2.32,0,0,1-1.17.9l1.71,2.44Z"/><polygon class="cls-1" points="27.7 50.19 27.7 51.35 22.15 51.35 22.15 43.94 27.55 43.94 27.55 45.09 23.52 45.09 23.52 47.02 27.1 47.02 27.1 48.15 23.52 48.15 23.52 50.19 27.7 50.19"/><polygon class="cls-1" points="41.25 50.19 41.25 51.35 35.69 51.35 35.69 43.94 41.1 43.94 41.1 45.09 37.07 45.09 37.07 47.02 40.64 47.02 40.64 48.15 37.07 48.15 37.07 50.19 41.25 50.19"/><polygon class="cls-1" points="56.04 51.35 56.03 46.44 53.59 50.5 52.98 50.5 50.55 46.5 50.55 51.35 49.24 51.35 49.24 43.94 50.37 43.94 53.31 48.85 56.2 43.94 57.33 43.94 57.34 51.35 56.04 51.35"/><polygon class="cls-1" points="81.96 43.94 81.96 51.35 80.59 51.35 80.59 48.17 76.76 48.17 76.76 51.35 75.38 51.35 75.38 43.94 76.76 43.94 76.76 47 80.59 47 80.59 43.94 81.96 43.94"/><rect class="cls-1" x="90.41" y="43.94" width="1.38" height="7.41"/><polygon class="cls-1" points="100.24 43.94 101.61 43.94 101.61 50.18 105.48 50.18 105.48 51.35 100.24 51.35 100.24 43.94"/><polygon class="cls-1" points="113.03 43.94 114.41 43.94 114.41 50.18 118.28 50.18 118.28 51.35 113.03 51.35 113.03 43.94"/><path class="cls-1" d="M126.41,51.21a3.44,3.44,0,0,1-1.27-.65l.48-1.06a3.69,3.69,0,0,0,1.12.58,4.08,4.08,0,0,0,1.32.23,2.39,2.39,0,0,0,1.24-.26.8.8,0,0,0,.4-.7.69.69,0,0,0-.22-.53,1.79,1.79,0,0,0-.58-.32,9,9,0,0,0-1-.26,10.69,10.69,0,0,1-1.37-.41,2.17,2.17,0,0,1-.9-.63,1.68,1.68,0,0,1-.38-1.15,1.92,1.92,0,0,1,.34-1.12,2.2,2.2,0,0,1,1-.8,4.05,4.05,0,0,1,1.65-.3,5.45,5.45,0,0,1,1.33.17,3.9,3.9,0,0,1,1.13.49l-.43,1.07a4,4,0,0,0-1-.43,3.71,3.71,0,0,0-1-.15,2.21,2.21,0,0,0-1.22.27.86.86,0,0,0-.39.73.64.64,0,0,0,.23.52,1.57,1.57,0,0,0,.57.32c.23.08.55.16.95.26a10.06,10.06,0,0,1,1.36.4,2.37,2.37,0,0,1,.9.63,1.65,1.65,0,0,1,.38,1.14,2,2,0,0,1-.33,1.11,2.36,2.36,0,0,1-1,.8,4.33,4.33,0,0,1-1.66.29,5.68,5.68,0,0,1-1.65-.24"/><path class="cls-1" d="M85,23.73C104.77,23.73,108,7,108.53,2a.22.22,0,0,0-.42-.11c-1.75,3.86-8.07,15-23,15C70.66,16.87,53.13,5.5,46.74,3.92c-6.16-1.53-9.32,2.34-11,8.06-11.93-.53-18.44,14.83-28,14.83A7.58,7.58,0,0,1,.43,22.42a.23.23,0,0,0-.43.11c.33,5.6,2.8,9.52,9.75,9.52,8.35,0,15.86-12.56,23.68-12.56-.73,1.63-1.39,10,4.69,10,8.85,0,6.54-15.75-.59-17.48.73-1.52,5.27-3.85,13.78-.06C67.25,19,75.81,23.73,85,23.73Zm-49.51-3c0-.05,0,0,0,0Zm6.64.1c-2,5.48-7.86,1.58-6.89-1.44A11.71,11.71,0,0,1,42.08,20.86Z"/><path class="cls-1" d="M65.44,23.2a.23.23,0,0,0-.38.14,38.73,38.73,0,0,0-.12,6.19.67.67,0,0,0,.2.41c1,.95,5.81,5.53,11.3,6.69a.22.22,0,0,0,.27-.23A29.54,29.54,0,0,1,77,30a.22.22,0,0,0-.16-.25A32.38,32.38,0,0,1,65.44,23.2Z"/><path class="cls-1" d="M125.87,7.2c-8.06,2.94-25.73,25.85-44.12,22.89a26.92,26.92,0,0,0-.13,7.39c21.62.49,33.77-17.1,43.49-23.07,7-4.3,11.77-.94,13.36.52a.23.23,0,0,0,.37-.23C138,12,134.84,3.93,125.87,7.2Z"/><path class="cls-1" d="M9.58,1.39A.69.69,0,0,0,10.25.7.69.69,0,0,0,9.58,0a.71.71,0,0,0-.69.7A.7.7,0,0,0,9.58,1.39Z"/><path class="cls-1" d="M25.78,3.47A3,3,0,0,0,23,2.11H21.37L19.92,3.22H22.8a1.89,1.89,0,0,1,1.87.89A5.38,5.38,0,0,1,25,6.37V7.44H23.82A2.24,2.24,0,0,0,24.18,6a2.38,2.38,0,0,0-.37-1.37A1.57,1.57,0,0,0,22.4,4,1.62,1.62,0,0,0,21,4.65,2.38,2.38,0,0,0,20.61,6c0,.84.13,1.3.41,1.42H16.71a1.14,1.14,0,0,1-1.3-1.29V0L14.15.4V6.09a1.18,1.18,0,0,1-1.31,1.35H10.29V2.57L9,2.94V8.2A1.63,1.63,0,0,1,7.31,10a4,4,0,0,1-2-.51l.6,1.25a2.6,2.6,0,0,0,1.42.36,2.76,2.76,0,0,0,3-2.55h2.64a2.43,2.43,0,0,0,1.87-.71,2.46,2.46,0,0,0,1.84.71H26.3V6.37A6.25,6.25,0,0,0,25.78,3.47Zm-3.38,4c-.52,0-.78-.48-.78-1.45,0-.77.26-1.15.78-1.15s.78.38.78,1.15C23.18,7,22.92,7.47,22.4,7.47Z"/><path class="cls-1" d="M212.64,25.56a16.22,16.22,0,0,0,2.83-9.24A16,16,0,0,0,214.19,10a16.4,16.4,0,0,0-8.68-8.7,16.39,16.39,0,0,0-12.7,0,16.17,16.17,0,0,0-5.18,3.5,16.65,16.65,0,0,0-3.48,5.2,16.46,16.46,0,0,0,0,12.68,16.82,16.82,0,0,0,3.48,5.21,16.25,16.25,0,0,0,11.52,4.77,15.63,15.63,0,0,0,3.38-.36,17.94,17.94,0,0,0,3-.93l-4.15-4.15c-.33.06-.69.1-1.06.15a10.88,10.88,0,0,1-9-3.16,10.73,10.73,0,0,1-2.41-3.62,11.13,11.13,0,0,1-.82-4.25,11,11,0,0,1,.82-4.23,10.71,10.71,0,0,1,2.41-3.59,11.08,11.08,0,0,1,3.59-2.43,11.17,11.17,0,0,1,8.5,0,11.2,11.2,0,0,1,5.46,15.66l-.06.11-9.58-9.53v7.4l16.23,16.23V28.53l-2.87-2.91Z"/><path class="cls-1" d="M185.85,41.07a1.66,1.66,0,0,1-.11.61,1.35,1.35,0,0,1-.3.47,1.28,1.28,0,0,1-.5.31,1.9,1.9,0,0,1-.66.11H184l-.18,0-.14,0,.08-.39.08,0,.24,0,.28,0a.69.69,0,0,0,.3-.14,1,1,0,0,0,.24-.32,1.42,1.42,0,0,0,.09-.56,1.68,1.68,0,0,0-.05-.4.67.67,0,0,0-.18-.33,1,1,0,0,0-.35-.22,1.73,1.73,0,0,0-.55-.08h-.35v4.46h-.77V39.74h.3l.33,0h.41l.64,0a2,2,0,0,1,.54.13l.23.11a1.08,1.08,0,0,1,.28.22,1.41,1.41,0,0,1,.24.36,1.34,1.34,0,0,1,.1.52"/><path class="cls-1" d="M188.52,41.37a.54.54,0,0,0-.15-.09l-.18-.05a1.14,1.14,0,0,0-.52,0l-.19.05a.68.68,0,0,0-.17.09v3.2h-.76V40.7h.74v.45a1.42,1.42,0,0,1,.24-.25,1,1,0,0,1,.29-.18.93.93,0,0,1,.39-.08.78.78,0,0,1,.22,0l.16,0,.14.05Z"/><path class="cls-1" d="M192.65,42.59a3.38,3.38,0,0,1-.08.67,2,2,0,0,1-.27.67,1.56,1.56,0,0,1-.56.52,1.79,1.79,0,0,1-.92.21,2,2,0,0,1-.76-.14,1.28,1.28,0,0,1-.54-.4,1.61,1.61,0,0,1-.33-.62,2.88,2.88,0,0,1-.11-.81,3.32,3.32,0,0,1,.07-.67,2.13,2.13,0,0,1,.28-.68,1.54,1.54,0,0,1,.56-.51,1.77,1.77,0,0,1,.92-.21,1.81,1.81,0,0,1,.76.14,1.28,1.28,0,0,1,.54.4,1.54,1.54,0,0,1,.33.62,2.88,2.88,0,0,1,.11.81m-.8,0a4.13,4.13,0,0,0,0-.63,1.66,1.66,0,0,0-.16-.49.81.81,0,0,0-.3-.33.91.91,0,0,0-.49-.12.88.88,0,0,0-.45.1.81.81,0,0,0-.3.31,1.63,1.63,0,0,0-.17.5,4.23,4.23,0,0,0-.05.66,4,4,0,0,0,.05.63,1.41,1.41,0,0,0,.16.49.8.8,0,0,0,.3.33.9.9,0,0,0,.48.12.79.79,0,0,0,.76-.42,2.55,2.55,0,0,0,.22-1.15"/><path class="cls-1" d="M197,42.54a2.43,2.43,0,0,1-.16.94,1.89,1.89,0,0,1-.43.65,1.72,1.72,0,0,1-.6.37,1.92,1.92,0,0,1-.66.12l-.37,0-.24-.05a.61.61,0,0,1-.18-.08V45.9h-.76V40.7h.74V41a.68.68,0,0,1,.24-.2,2.27,2.27,0,0,1,.34-.15,1.7,1.7,0,0,1,.49-.07,1.71,1.71,0,0,1,.7.14,1.33,1.33,0,0,1,.49.39,1.88,1.88,0,0,1,.3.6,2.8,2.8,0,0,1,.1.79m-.79.06a1.8,1.8,0,0,0-.29-1.08,1,1,0,0,0-.88-.4l-.29,0-.21.06a.54.54,0,0,0-.17.07v2.85l.12,0,.16,0h.26a1.62,1.62,0,0,0,.49-.08.93.93,0,0,0,.41-.25,1.23,1.23,0,0,0,.29-.49,2.37,2.37,0,0,0,.11-.77"/><path class="cls-1" d="M198.5,42.53v.11a1.93,1.93,0,0,0,.14.79,1.14,1.14,0,0,0,.34.45,1,1,0,0,0,.43.21,2.37,2.37,0,0,0,.42,0,1.83,1.83,0,0,0,.35,0l.25-.06a.67.67,0,0,0,.21-.09l.18.46a1.39,1.39,0,0,1-.29.1l-.37.07a3.94,3.94,0,0,1-.52,0,2.94,2.94,0,0,1-.65-.07,1.4,1.4,0,0,1-.62-.28,1.54,1.54,0,0,1-.46-.59,2.36,2.36,0,0,1-.19-1,2.6,2.6,0,0,1,0-.36,1.81,1.81,0,0,1,.09-.44,2.16,2.16,0,0,1,.19-.45,1.61,1.61,0,0,1,.31-.39,1.67,1.67,0,0,1,.47-.28,1.85,1.85,0,0,1,.65-.1,1.68,1.68,0,0,1,.81.17,1.21,1.21,0,0,1,.48.47,1.39,1.39,0,0,1,.18.52,3,3,0,0,1,0,.61v.14Zm1.7-.5a1.28,1.28,0,0,0-.19-.74.74.74,0,0,0-.62-.26.87.87,0,0,0-.5.14.79.79,0,0,0-.29.45,1.21,1.21,0,0,0,0,.18c0,.05,0,.11,0,.16s0,.1,0,.15h1.68Z"/><path class="cls-1" d="M203.85,41.37a.67.67,0,0,0-.14-.09.74.74,0,0,0-.19-.05.9.9,0,0,0-.25,0,1.12,1.12,0,0,0-.27,0l-.19.05a.61.61,0,0,0-.16.09v3.2h-.76V40.7h.74v.45a1.13,1.13,0,0,1,.24-.25,1,1,0,0,1,.67-.26.72.72,0,0,1,.22,0l.16,0,.14.05Z"/><path class="cls-1" d="M206.5,44.55l-.28.05h-.39a1.61,1.61,0,0,1-.67-.12.7.7,0,0,1-.37-.43,1.39,1.39,0,0,1-.06-.34c0-.14,0-.27,0-.38V41.16h-.53v-.34l.08,0a1.1,1.1,0,0,0,.54-.31,1,1,0,0,0,.25-.57v-.09h.43v.89h1.22v.44h-1.22v2.3a2.28,2.28,0,0,0,0,.26.49.49,0,0,0,.08.21.45.45,0,0,0,.18.15.93.93,0,0,0,.32.05h.2l.16,0,.14,0,.14.44a1,1,0,0,1-.22.07"/><path class="cls-1" d="M208.23,39.72a.42.42,0,0,1-.13.34.51.51,0,0,1-.34.11.55.55,0,0,1-.34-.11.39.39,0,0,1-.13-.32.39.39,0,0,1,.13-.33.51.51,0,0,1,.34-.11.55.55,0,0,1,.34.11.37.37,0,0,1,.13.31m-.85,1h.76v3.87h-.76Z"/><path class="cls-1" d="M209.87,42.53v.11a1.78,1.78,0,0,0,.14.79,1.14,1.14,0,0,0,.34.45,1,1,0,0,0,.43.21,2.17,2.17,0,0,0,.41,0,1.75,1.75,0,0,0,.35,0l.26-.06A.67.67,0,0,0,212,44l.18.46a1.5,1.5,0,0,1-.3.1l-.37.07a3.68,3.68,0,0,1-.51,0,3.09,3.09,0,0,1-.66-.07,1.51,1.51,0,0,1-.62-.28,1.64,1.64,0,0,1-.46-.59,2.52,2.52,0,0,1-.18-1c0-.1,0-.22,0-.36a3.82,3.82,0,0,1,.09-.44,2.88,2.88,0,0,1,.19-.45,2,2,0,0,1,.32-.39,1.67,1.67,0,0,1,.47-.28,1.81,1.81,0,0,1,.65-.1,1.74,1.74,0,0,1,.81.17,1.21,1.21,0,0,1,.48.47,1.87,1.87,0,0,1,.18.52,3.86,3.86,0,0,1,0,.61v.14Zm1.69-.5a1.21,1.21,0,0,0-.19-.74.72.72,0,0,0-.62-.26.84.84,0,0,0-.49.14.79.79,0,0,0-.29.45.61.61,0,0,0-.05.18.88.88,0,0,0,0,.16.76.76,0,0,0,0,.15h1.67Z"/><path class="cls-1" d="M215.47,43.46a1.13,1.13,0,0,1-.12.54.9.9,0,0,1-.31.36,1.32,1.32,0,0,1-.45.2,2.35,2.35,0,0,1-.54.06,3.63,3.63,0,0,1-.5,0,2.45,2.45,0,0,1-.37-.07,1.05,1.05,0,0,1-.3-.1L213,44a1.33,1.33,0,0,0,.24.1l.3.06a2.46,2.46,0,0,0,.41,0,1,1,0,0,0,.57-.14.49.49,0,0,0,.21-.42.51.51,0,0,0-.1-.32,1.58,1.58,0,0,0-.32-.22l-.61-.34a2.26,2.26,0,0,1-.26-.16.93.93,0,0,1-.23-.21,1,1,0,0,1-.17-.28,1.14,1.14,0,0,1-.06-.39,1.13,1.13,0,0,1,.09-.47.87.87,0,0,1,.28-.32,1.15,1.15,0,0,1,.42-.19,2.11,2.11,0,0,1,.52-.07,2.78,2.78,0,0,1,.45,0l.33.06.26.09-.17.47-.23-.09-.26-.07a1.69,1.69,0,0,0-.33,0,1.49,1.49,0,0,0-.33,0,.68.68,0,0,0-.21.11.42.42,0,0,0-.11.16.47.47,0,0,0,0,.17.48.48,0,0,0,0,.18.38.38,0,0,0,.09.15A.53.53,0,0,0,214,42l.24.14.59.32.22.13a1,1,0,0,1,.21.19,1.1,1.1,0,0,1,.17.28.84.84,0,0,1,.07.37"/><path class="cls-1" d="M183.4,50.09a1.76,1.76,0,0,0-.19.39,1.35,1.35,0,0,0-.07.46,1.39,1.39,0,0,0,.05.33.75.75,0,0,0,.18.34,1.08,1.08,0,0,0,.4.27,2,2,0,0,0,.71.11h3V49.47h.78v3.07h-3.94a2.9,2.9,0,0,1-.86-.11,1.38,1.38,0,0,1-.51-.3,1.14,1.14,0,0,1-.25-.42,1.88,1.88,0,0,1-.06-.46,1.56,1.56,0,0,1,.15-.67,2.08,2.08,0,0,1,.35-.55Zm1.32-1.25a.38.38,0,0,1,.12-.28.41.41,0,0,1,.28-.11.44.44,0,0,1,.29.11.38.38,0,0,1,.12.28.41.41,0,0,1-.41.41.38.38,0,0,1-.28-.12.4.4,0,0,1-.12-.29m1.13,0a.37.37,0,0,1,.11-.28.44.44,0,0,1,.29-.11.39.39,0,0,1,.28.11.38.38,0,0,1,.12.28.4.4,0,0,1-.12.29.36.36,0,0,1-.28.12.4.4,0,0,1-.29-.12.39.39,0,0,1-.11-.29"/><rect class="cls-1" x="190.06" y="47.1" width="0.77" height="5.44"/><path class="cls-1" d="M193.77,52.37a2.25,2.25,0,0,1-.13.84,1.56,1.56,0,0,1-.3.51A1,1,0,0,1,193,54a1.4,1.4,0,0,1-.37.07,1.9,1.9,0,0,1-.46-.07,1.54,1.54,0,0,1-.43-.2l.05-.17.21,0h.2a1.4,1.4,0,0,0,.38,0,.61.61,0,0,0,.26-.19.88.88,0,0,0,.15-.39,3.6,3.6,0,0,0,.05-.64V49.47h.78Z"/><path class="cls-1" d="M195.49,52.54V47.1h.77V52h.61c.06,0,.11,0,.13,0a.17.17,0,0,1,0,.13v.2c0,.12-.06.18-.17.18Z"/><path class="cls-1" d="M197.92,52.54h-1.25a.2.2,0,0,1-.14,0,.59.59,0,0,1,0-.14v-.21a.68.68,0,0,1,0-.14l.14,0h1.25Z"/><path class="cls-1" d="M198.88,52.54h-1.25a.17.17,0,0,1-.13,0,.32.32,0,0,1,0-.14v-.21a.34.34,0,0,1,0-.14l.13,0h1.25Z"/><path class="cls-1" d="M199.85,52.54H198.6a.2.2,0,0,1-.14,0,.59.59,0,0,1,0-.14v-.21a.68.68,0,0,1,0-.14l.14,0h1.25Z"/><path class="cls-1" d="M200.82,52.54h-1.25a.2.2,0,0,1-.14,0,.32.32,0,0,1,0-.14v-.21a.34.34,0,0,1,0-.14l.14,0h1.25Z"/><path class="cls-1" d="M201.78,52.54h-1.25a.21.21,0,0,1-.14,0,.59.59,0,0,1,0-.14v-.21a.68.68,0,0,1,0-.14l.14,0h1.25Z"/><path class="cls-1" d="M202.75,52.54H201.5a.2.2,0,0,1-.14,0,.59.59,0,0,1,0-.14v-.21a.68.68,0,0,1,0-.14l.14,0h1.25Z"/><path class="cls-1" d="M203.71,52.54h-1.25a.18.18,0,0,1-.13,0,.32.32,0,0,1,0-.14v-.21a.34.34,0,0,1,0-.14l.13,0h1.25Z"/><path class="cls-1" d="M203.5,52.54a.14.14,0,0,1-.12,0,.22.22,0,0,1,0-.12v-.23a.18.18,0,0,1,0-.11s.06,0,.12,0h.77a1.47,1.47,0,0,1-.08-.35c0-.11,0-.23,0-.35a1.89,1.89,0,0,1,.15-.77,1.78,1.78,0,0,1,.4-.57,1.65,1.65,0,0,1,.57-.35,1.91,1.91,0,0,1,.68-.13h1l.09.89c0,.31,0,.62,0,.94v.34c0,.11,0,.23,0,.35h.7c.06,0,.11,0,.13,0a.17.17,0,0,1,0,.13v.2c0,.12-.06.18-.17.18Zm1.35-4.27A.36.36,0,0,1,205,48a.4.4,0,0,1,.29-.12.38.38,0,0,1,.28.12.39.39,0,0,1,0,.56.38.38,0,0,1-.28.12.4.4,0,0,1-.29-.12.36.36,0,0,1-.11-.29M206.27,52c0-.15,0-.29.06-.43s0-.28,0-.42,0-.38,0-.57,0-.36-.07-.54h-.4a1.18,1.18,0,0,0-.29,0,.85.85,0,0,0-.29.19,1.09,1.09,0,0,0-.24.34,1.45,1.45,0,0,0-.09.54,2.09,2.09,0,0,0,0,.43,1.33,1.33,0,0,0,.14.41Zm-.3-3.72a.37.37,0,0,1,.12-.27.38.38,0,0,1,.28-.12.38.38,0,0,1,.29.12.4.4,0,0,1,.11.27.4.4,0,0,1-.11.29.38.38,0,0,1-.29.12.38.38,0,0,1-.28-.12.37.37,0,0,1-.12-.29"/><path class="cls-1" d="M207.65,52.54c-.07,0-.11,0-.12,0a.21.21,0,0,1,0-.12v-.23a.18.18,0,0,1,0-.11s.06,0,.12,0h1.21a3.25,3.25,0,0,1-.51-.64,1.41,1.41,0,0,1-.2-.75,1.27,1.27,0,0,1,.14-.63,1.24,1.24,0,0,1,.37-.45,1.34,1.34,0,0,1,.52-.26,2,2,0,0,1,.59-.09,2.47,2.47,0,0,1,.44,0,1.93,1.93,0,0,1,.42.12v.56a1,1,0,0,0-.32-.11,1.37,1.37,0,0,0-.29,0,1.93,1.93,0,0,0-.42,0,1,1,0,0,0-.34.17.83.83,0,0,0-.24.31,1,1,0,0,0-.09.44,1.32,1.32,0,0,0,.06.39,3.73,3.73,0,0,0,.16.35,1.7,1.7,0,0,0,.23.3,2.61,2.61,0,0,0,.25.23h1.68c.07,0,.12,0,.14,0a.17.17,0,0,1,0,.13v.2a.16.16,0,0,1-.18.18Z"/><path class="cls-1" d="M211.18,52.54a.14.14,0,0,1-.12,0,.37.37,0,0,1,0-.12v-.23a.31.31,0,0,1,0-.11s.06,0,.12,0h.58a.33.33,0,0,0,.28-.1.71.71,0,0,0,.07-.38V47.1h.77v4a1.84,1.84,0,0,0,0,.33.83.83,0,0,0,.11.29.48.48,0,0,0,.21.19.67.67,0,0,0,.33.08h.32c.07,0,.12,0,.14,0a.17.17,0,0,1,0,.13v.2a.16.16,0,0,1-.18.18h-.14a.77.77,0,0,1-.58-.23,1.1,1.1,0,0,1-.29-.59,1.89,1.89,0,0,1-.09.34.74.74,0,0,1-.17.25.77.77,0,0,1-.29.17,1.42,1.42,0,0,1-.44.06Z"/><path class="cls-1" d="M213.75,52.54c-.07,0-.11,0-.12,0a.21.21,0,0,1,0-.12v-.23a.18.18,0,0,1,0-.11s.06,0,.12,0h.94V47.1h.78v5.44Z"/><line class="cls-2" x1="160.76" x2="160.76" y2="54.04"/></g></g></svg>