<?xml version="1.0" encoding="UTF-8"?><svg id="Layer_2" xmlns="http://www.w3.org/2000/svg" viewBox="0 0 251.73 86.26"><defs><style>.cls-1{fill:#1c1b14;}</style></defs><g id="Layer_1-2"><g><g><g><path class="cls-1" d="M14.62,68.54c-.37-.3-.91-.45-1.62-.45h-1.91v3.51h1.91c.71,0,1.25-.15,1.62-.46,.37-.31,.55-.74,.55-1.3s-.18-.99-.55-1.29m.59,6.96l-1.8-2.58c-.08,0-.19,.01-.34,.01h-1.99v2.56h-1.63v-8.8h3.62c.76,0,1.43,.13,1.99,.38,.57,.25,1,.61,1.3,1.08,.3,.47,.45,1.03,.45,1.67s-.16,1.23-.48,1.71c-.32,.48-.79,.83-1.39,1.07l2.02,2.89h-1.76Z"/><polygon class="cls-1" points="32.9 74.13 32.9 75.5 26.3 75.5 26.3 66.71 32.72 66.71 32.72 68.08 27.94 68.08 27.94 70.36 32.18 70.36 32.18 71.71 27.94 71.71 27.94 74.13 32.9 74.13"/><polygon class="cls-1" points="48.98 74.13 48.98 75.5 42.39 75.5 42.39 66.71 48.81 66.71 48.81 68.08 44.02 68.08 44.02 70.36 48.27 70.36 48.27 71.71 44.02 71.71 44.02 74.13 48.98 74.13"/><polygon class="cls-1" points="66.55 75.5 66.54 69.67 63.65 74.5 62.92 74.5 60.03 69.75 60.03 75.5 58.47 75.5 58.47 66.71 59.82 66.71 63.31 72.54 66.74 66.71 68.08 66.71 68.1 75.5 66.55 75.5"/><polygon class="cls-1" points="97.34 66.71 97.34 75.5 95.7 75.5 95.7 71.73 91.16 71.73 91.16 75.5 89.52 75.5 89.52 66.71 91.16 66.71 91.16 70.34 95.7 70.34 95.7 66.71 97.34 66.71"/><rect class="cls-1" x="107.37" y="66.71" width="1.63" height="8.8"/><polygon class="cls-1" points="119.04 66.71 120.67 66.71 120.67 74.12 125.27 74.12 125.27 75.5 119.04 75.5 119.04 66.71"/><polygon class="cls-1" points="134.23 66.71 135.87 66.71 135.87 74.12 140.46 74.12 140.46 75.5 134.23 75.5 134.23 66.71"/><path class="cls-1" d="M150.12,75.34c-.63-.19-1.13-.45-1.5-.77l.57-1.27c.36,.28,.8,.52,1.33,.7,.52,.18,1.05,.27,1.58,.27,.65,0,1.14-.1,1.46-.31,.32-.21,.48-.49,.48-.83,0-.25-.09-.46-.27-.62-.18-.16-.41-.29-.68-.38-.28-.09-.65-.2-1.13-.31-.67-.16-1.21-.32-1.63-.48-.41-.16-.77-.41-1.07-.75-.3-.34-.45-.8-.45-1.38,0-.49,.13-.93,.4-1.33,.26-.4,.66-.71,1.19-.95,.53-.23,1.18-.35,1.95-.35,.54,0,1.06,.07,1.58,.2,.52,.13,.97,.33,1.34,.58l-.51,1.27c-.39-.23-.79-.4-1.21-.52-.42-.12-.83-.18-1.22-.18-.65,0-1.12,.11-1.44,.33-.31,.22-.47,.51-.47,.87,0,.25,.09,.46,.27,.62,.18,.16,.41,.29,.69,.38,.28,.09,.65,.2,1.13,.31,.65,.15,1.19,.31,1.61,.47,.42,.16,.78,.41,1.07,.75,.3,.33,.45,.79,.45,1.36,0,.49-.13,.93-.4,1.32-.26,.39-.66,.71-1.2,.94-.54,.23-1.19,.35-1.96,.35-.68,0-1.33-.1-1.97-.29"/></g><g><path class="cls-1" d="M100.89,42.71c23.53,0,27.38-19.84,28-25.81,.03-.3-.38-.42-.51-.14-2.07,4.58-9.57,17.81-27.36,17.81s-37.94-13.5-45.53-15.38c-7.31-1.81-11.07,2.78-13.05,9.57-14.17-.63-21.89,17.62-33.28,17.62-5.36,0-7.72-3.24-8.66-5.22-.12-.26-.52-.16-.51,.13,.39,6.66,3.33,11.31,11.58,11.31,9.92,0,18.83-14.92,28.13-14.92-.87,1.94-1.66,11.88,5.57,11.88,10.51,0,7.76-18.71-.7-20.77,.86-1.8,6.25-4.57,16.36-.07,18.93,8.42,29.1,13.99,39.96,13.99Zm-58.8-3.53c-.04-.06-.03-.04,0,0h0Zm7.88,.12c-2.33,6.51-9.33,1.88-8.18-1.71,4.23-.43,7.82,1.37,8.18,1.71Z"/><path class="cls-1" d="M77.71,42.08c-.16-.15-.42-.05-.45,.17-.12,1.15-.36,4.05-.14,7.34,.01,.19,.1,.36,.23,.49,1.14,1.13,6.9,6.57,13.42,7.95,.17,.04,.33-.1,.32-.28-.15-1.81-.13-5.11,.29-7.57,.02-.13-.06-.25-.18-.29-6.52-1.89-12.01-6.5-13.48-7.81Z"/><path class="cls-1" d="M149.48,23.08c-9.57,3.49-30.56,30.7-52.39,27.18-.45,2.61-.51,5.61-.16,8.78,25.68,.58,40.11-20.31,51.64-27.4,8.3-5.1,13.98-1.12,15.88,.62,.2,.18,.51-.01,.43-.27-.95-3.18-4.75-12.78-15.41-8.9Z"/></g><g><path class="cls-1" d="M11.37,16.18c.44,0,.8-.38,.8-.82s-.36-.83-.8-.83-.82,.38-.82,.83,.38,.82,.82,.82Z"/><path class="cls-1" d="M30.62,18.65c-.61-1.09-1.73-1.62-3.35-1.62h-1.89l-1.72,1.32h3.42c1.12,0,1.86,.35,2.22,1.06,.27,.5,.41,1.4,.41,2.68v1.28h-1.42c.28-.35,.43-.91,.43-1.69,0-.65-.14-1.2-.44-1.62-.36-.55-.91-.82-1.67-.82s-1.31,.27-1.69,.82c-.3,.43-.44,.98-.44,1.62,0,.99,.16,1.54,.49,1.69h-5.12c-1.02,0-1.54-.5-1.54-1.53v-7.31l-1.5,.47v6.76c0,1.07-.52,1.61-1.56,1.61h-3.02v-5.78l-1.5,.44v6.24c0,1.32-.77,2.14-2.05,2.14-.9,0-1.69-.2-2.39-.6l.71,1.48c.46,.28,1.01,.43,1.69,.43,2.03,0,3.32-1.2,3.53-3.02h3.14c.96,0,1.7-.28,2.22-.85,.55,.57,1.28,.85,2.19,.85h11.48v-2.6c0-1.53-.2-2.68-.61-3.43Zm-4.02,4.74c-.61,0-.93-.57-.93-1.72,0-.91,.32-1.37,.93-1.37s.93,.46,.93,1.37c0,1.15-.31,1.72-.93,1.72Z"/></g></g><rect class="cls-1" x="179.94" width=".66" height="85.73"/><g><path class="cls-1" d="M247.22,40.8c1.43-2.09,2.55-4.4,3.33-6.87,.79-2.47,1.18-5.12,1.18-7.88,0-3.56-.69-6.96-2.04-10.13-1.35-3.16-3.23-5.95-5.58-8.3-2.35-2.35-5.14-4.23-8.27-5.58-3.13-1.35-6.55-2.04-10.16-2.04s-6.96,.69-10.12,2.04c-3.16,1.35-5.94,3.23-8.27,5.58-2.32,2.35-4.19,5.14-5.55,8.3-1.35,3.16-2.04,6.57-2.04,10.13s.68,6.97,2.04,10.13c1.35,3.16,3.22,5.95,5.55,8.3,2.32,2.35,5.11,4.23,8.27,5.58,3.16,1.35,6.57,2.04,10.12,2.04,1.85,0,3.67-.19,5.4-.57,1.66-.36,3.26-.86,4.77-1.49l-6.62-6.62c-.54,.09-1.11,.17-1.7,.24-.6,.07-1.23,.11-1.85,.11-2.36,0-4.63-.44-6.75-1.3-2.12-.87-4.05-2.16-5.73-3.85-1.69-1.68-2.98-3.62-3.85-5.77-.87-2.14-1.31-4.43-1.31-6.79s.44-4.63,1.31-6.75c.86-2.12,2.16-4.05,3.85-5.74,1.68-1.68,3.61-2.99,5.73-3.88,2.12-.89,4.39-1.35,6.75-1.35s4.71,.45,6.83,1.35c2.12,.89,4.04,2.2,5.73,3.88,1.69,1.69,2.98,3.62,3.85,5.74,.87,2.12,1.3,4.39,1.3,6.75,0,3.13-.73,6.03-2.17,8.64l-.1,.17-15.29-15.22v11.81l25.9,25.9v-11.81l-4.58-4.65,.07-.1Z"/><g><path class="cls-1" d="M204.44,65.57c0,.35-.06,.68-.17,.97-.11,.29-.27,.54-.49,.75-.21,.21-.48,.37-.79,.49-.31,.12-.66,.17-1.05,.17-.15,0-.28,0-.4-.01-.11,0-.21-.02-.29-.03-.09-.01-.16-.03-.22-.04l.13-.63s.07,.03,.12,.04c.09,.02,.22,.03,.39,.03,.13,0,.28-.02,.45-.05,.17-.03,.33-.11,.48-.22,.15-.12,.27-.28,.37-.5,.1-.22,.15-.52,.15-.89,0-.23-.03-.45-.08-.65-.05-.2-.15-.37-.29-.52-.14-.15-.32-.26-.56-.35-.23-.08-.53-.12-.88-.12-.08,0-.15,0-.22,0-.06,0-.12,0-.17,0-.06,0-.11,.01-.16,.01v7.11h-1.23v-7.7c.14,0,.3-.01,.48-.02,.14,0,.32-.01,.53-.02,.21,0,.42-.01,.66-.01,.39,0,.73,.01,1.03,.04,.29,.03,.58,.09,.85,.2,.09,.04,.22,.1,.37,.18,.15,.08,.3,.2,.45,.35,.15,.15,.27,.34,.38,.57,.1,.23,.16,.51,.16,.84"/><path class="cls-1" d="M208.7,66.03c-.06-.05-.14-.09-.23-.13-.08-.04-.18-.07-.29-.09-.12-.03-.25-.04-.41-.04s-.3,.01-.42,.04c-.12,.03-.22,.06-.31,.09-.1,.04-.19,.08-.26,.13v5.11h-1.21v-6.17h1.18v.72c.11-.14,.23-.28,.38-.4,.12-.1,.27-.2,.46-.28,.18-.09,.39-.13,.63-.13,.13,0,.25,0,.35,.03,.1,.02,.19,.04,.26,.06,.08,.03,.15,.05,.22,.08l-.34,1Z"/><path class="cls-1" d="M215.3,67.99c0,.33-.04,.68-.12,1.07-.08,.39-.23,.75-.44,1.08-.21,.33-.51,.61-.89,.83-.38,.22-.87,.33-1.47,.33-.46,0-.87-.07-1.21-.22-.35-.15-.64-.36-.87-.63-.23-.27-.41-.61-.52-.99-.12-.39-.17-.82-.17-1.3,0-.33,.04-.68,.12-1.07,.08-.39,.23-.75,.44-1.08,.21-.33,.51-.61,.89-.83,.38-.22,.87-.33,1.47-.33,.46,0,.87,.07,1.21,.22,.35,.15,.64,.36,.87,.63,.23,.27,.4,.61,.52,.99,.12,.39,.17,.82,.17,1.3m-1.28,.08c0-.35-.03-.68-.08-.99-.05-.31-.14-.57-.25-.8-.12-.22-.28-.4-.48-.53-.2-.13-.46-.19-.77-.19-.29,0-.53,.06-.73,.17-.2,.11-.35,.28-.48,.49-.12,.22-.21,.48-.27,.79-.05,.31-.08,.66-.08,1.06,0,.36,.03,.69,.08,1,.05,.3,.13,.57,.25,.79,.12,.22,.28,.39,.48,.52,.2,.13,.46,.19,.77,.19,.57,0,.97-.22,1.2-.66,.23-.44,.35-1.05,.35-1.85"/><path class="cls-1" d="M222.25,67.91c0,.58-.09,1.08-.26,1.5-.17,.42-.4,.76-.68,1.04-.28,.27-.6,.47-.95,.6-.35,.13-.71,.19-1.06,.19-.23,0-.43-.01-.58-.03-.16-.02-.28-.05-.39-.09-.12-.03-.22-.07-.29-.12v2.29h-1.21v-8.31h1.18v.54c.1-.12,.23-.23,.39-.33,.14-.08,.31-.16,.53-.23,.22-.07,.48-.11,.79-.11,.42,0,.79,.07,1.11,.22,.32,.14,.58,.35,.79,.62,.21,.27,.37,.59,.48,.97,.11,.38,.16,.8,.16,1.26m-1.27,.09c0-.72-.16-1.3-.47-1.72-.31-.42-.78-.63-1.4-.63-.18,0-.34,.01-.47,.04s-.24,.05-.34,.08c-.11,.04-.2,.08-.27,.12v4.54c.05,.02,.12,.04,.2,.05,.07,.01,.16,.03,.27,.04,.1,.01,.24,.02,.41,.02,.27,0,.53-.04,.78-.11,.25-.08,.47-.21,.66-.4,.19-.19,.35-.45,.46-.78s.17-.74,.17-1.24"/><path class="cls-1" d="M224.65,67.89v.17c0,.53,.07,.95,.22,1.26,.14,.31,.32,.56,.54,.73,.22,.17,.45,.28,.69,.33,.25,.05,.47,.08,.66,.08,.21,0,.4-.01,.56-.04,.16-.03,.3-.06,.41-.1,.13-.04,.24-.08,.34-.14l.28,.73c-.12,.06-.28,.12-.47,.16-.16,.04-.36,.08-.59,.11-.23,.03-.51,.05-.82,.05-.34,0-.69-.04-1.05-.11-.36-.07-.69-.22-.99-.44-.3-.22-.54-.54-.74-.95-.2-.41-.29-.96-.29-1.65,0-.17,.01-.36,.04-.58,.03-.22,.07-.46,.15-.7,.07-.24,.17-.48,.3-.71,.13-.23,.3-.44,.5-.62,.21-.18,.46-.33,.75-.44,.29-.11,.64-.17,1.04-.17,.54,0,.97,.09,1.3,.28,.33,.18,.58,.44,.76,.75,.14,.24,.23,.51,.29,.82,.05,.31,.08,.63,.08,.98v.22h-3.96Zm2.7-.79c0-.52-.1-.92-.3-1.19-.2-.27-.53-.41-.99-.41-.32,0-.58,.07-.79,.22-.21,.15-.37,.38-.47,.72-.04,.1-.06,.2-.08,.29-.01,.09-.03,.18-.03,.25,0,.09-.01,.17-.01,.25h2.67v-.13Z"/><path class="cls-1" d="M233.18,66.03c-.06-.05-.14-.09-.23-.13-.08-.04-.18-.07-.29-.09-.12-.03-.25-.04-.41-.04s-.3,.01-.42,.04c-.12,.03-.22,.06-.31,.09-.1,.04-.19,.08-.26,.13v5.11h-1.21v-6.17h1.18v.72c.11-.14,.23-.28,.38-.4,.12-.1,.27-.2,.46-.28,.18-.09,.39-.13,.63-.13,.13,0,.25,0,.35,.03,.1,.02,.19,.04,.26,.06,.08,.03,.15,.05,.22,.08l-.34,1Z"/><path class="cls-1" d="M237.41,71.12c-.12,.03-.27,.05-.45,.07-.18,.02-.39,.03-.62,.03-.43,0-.79-.06-1.06-.19-.27-.13-.47-.36-.6-.7-.05-.14-.08-.32-.1-.54-.01-.22-.02-.43-.02-.61v-3.47h-.85v-.54l.13-.03c.35-.1,.64-.27,.86-.5,.22-.23,.35-.54,.39-.91v-.14h.69v1.42h1.95v.7h-1.95v3.67c0,.14,.01,.28,.03,.41,.02,.13,.06,.24,.13,.34,.06,.1,.16,.18,.29,.23,.13,.06,.29,.09,.5,.09,.12,0,.23,0,.33-.02,.09-.01,.18-.03,.25-.05,.08-.02,.16-.05,.23-.08l.23,.72c-.1,.04-.22,.08-.36,.11"/><path class="cls-1" d="M240.18,63.41c0,.24-.07,.42-.21,.54-.14,.12-.32,.18-.55,.18-.21,0-.39-.06-.53-.18-.14-.12-.22-.29-.22-.5,0-.24,.07-.42,.21-.53,.14-.12,.32-.17,.55-.17,.21,0,.39,.06,.53,.17,.14,.12,.22,.28,.22,.5m-1.37,1.56h1.21v6.17h-1.21v-6.17Z"/><path class="cls-1" d="M242.79,67.89v.17c0,.53,.07,.95,.22,1.26,.14,.31,.32,.56,.54,.73,.22,.17,.45,.28,.69,.33,.25,.05,.47,.08,.66,.08,.21,0,.4-.01,.56-.04,.16-.03,.3-.06,.41-.1,.13-.04,.24-.08,.34-.14l.28,.73c-.12,.06-.28,.12-.47,.16-.16,.04-.36,.08-.59,.11-.24,.03-.51,.05-.82,.05-.34,0-.69-.04-1.05-.11-.36-.07-.69-.22-.99-.44-.3-.22-.54-.54-.74-.95-.2-.41-.29-.96-.29-1.65,0-.17,.01-.36,.04-.58,.03-.22,.07-.46,.15-.7,.07-.24,.17-.48,.3-.71,.13-.23,.3-.44,.5-.62,.21-.18,.46-.33,.75-.44,.29-.11,.64-.17,1.04-.17,.54,0,.97,.09,1.3,.28,.33,.18,.58,.44,.76,.75,.14,.24,.23,.51,.29,.82,.05,.31,.08,.63,.08,.98v.22h-3.96Zm2.7-.79c0-.52-.1-.92-.3-1.19-.2-.27-.53-.41-.99-.41-.32,0-.58,.07-.79,.22-.21,.15-.37,.38-.47,.72-.04,.1-.06,.2-.08,.29-.01,.09-.03,.18-.03,.25,0,.09-.01,.17-.01,.25h2.67v-.13Z"/><path class="cls-1" d="M251.73,69.37c0,.34-.06,.63-.18,.87-.12,.24-.29,.43-.49,.58-.21,.14-.45,.25-.72,.31-.27,.06-.56,.1-.86,.1s-.58-.02-.81-.05c-.23-.03-.43-.07-.58-.1-.19-.04-.35-.1-.48-.16l.26-.74c.1,.06,.23,.11,.38,.15,.12,.04,.28,.07,.47,.1,.19,.03,.41,.05,.67,.05,.39,0,.69-.08,.91-.23,.22-.16,.33-.37,.33-.66,0-.22-.05-.39-.16-.51-.11-.12-.27-.23-.5-.36l-.98-.54c-.14-.08-.29-.17-.42-.26-.14-.09-.26-.21-.37-.34-.11-.13-.2-.28-.27-.45-.07-.17-.1-.37-.1-.61,0-.29,.05-.54,.16-.75,.11-.21,.25-.38,.44-.52,.19-.14,.41-.24,.67-.3,.26-.06,.54-.1,.84-.1,.27,0,.51,.02,.72,.05,.2,.03,.38,.07,.52,.1,.17,.04,.31,.09,.42,.14l-.28,.75c-.11-.05-.23-.1-.36-.14-.12-.04-.25-.07-.41-.1-.16-.03-.34-.05-.53-.05-.21,0-.39,.02-.53,.06-.14,.04-.25,.1-.34,.17-.08,.07-.14,.15-.18,.24-.04,.09-.05,.18-.05,.28,0,.11,.01,.21,.04,.29,.03,.09,.08,.17,.14,.24,.06,.07,.15,.14,.25,.21,.11,.07,.23,.14,.39,.22l.93,.5c.11,.06,.23,.13,.35,.21,.13,.08,.24,.19,.35,.31,.1,.12,.19,.27,.27,.44,.07,.17,.11,.37,.11,.59"/></g><g><path class="cls-1" d="M200.53,79.96c-.13,.19-.22,.4-.3,.62-.07,.22-.11,.47-.11,.74,0,.15,.02,.33,.07,.52,.05,.19,.15,.37,.3,.55,.15,.17,.37,.32,.64,.43,.28,.11,.65,.17,1.12,.17h4.86v-4.01h1.24v4.89h-6.29c-.57,0-1.02-.06-1.37-.18-.35-.12-.62-.28-.82-.48-.19-.2-.33-.42-.4-.67-.07-.25-.1-.49-.1-.73,0-.37,.08-.73,.24-1.07,.16-.35,.35-.64,.56-.88l.34,.1Zm2.11-1.99c0-.17,.06-.32,.19-.44,.13-.12,.28-.19,.45-.19s.33,.06,.46,.19c.13,.13,.19,.27,.19,.44,0,.18-.06,.34-.19,.46-.13,.12-.28,.19-.46,.19s-.33-.06-.45-.19c-.13-.13-.19-.28-.19-.46m1.8,0c0-.17,.06-.32,.19-.44,.13-.12,.28-.19,.45-.19s.34,.06,.46,.19c.12,.13,.18,.27,.18,.44,0,.18-.06,.34-.18,.46-.12,.12-.27,.19-.46,.19s-.33-.06-.45-.19c-.13-.13-.19-.28-.19-.46"/><rect class="cls-1" x="211.18" y="75.19" width="1.23" height="8.68"/><path class="cls-1" d="M217.08,83.59c0,.55-.07,1-.2,1.34-.13,.35-.29,.61-.48,.81-.19,.19-.4,.33-.62,.4-.22,.07-.42,.11-.59,.11-.23,0-.48-.04-.73-.11-.25-.07-.48-.18-.69-.31l.09-.29c.1,.04,.2,.06,.32,.07,.12,.01,.23,.02,.33,.02,.23,0,.44-.03,.6-.08,.17-.06,.3-.16,.41-.3,.11-.15,.19-.35,.24-.62,.05-.26,.08-.61,.08-1.02v-4.64h1.24v4.62Z"/><path class="cls-1" d="M219.83,83.87v-8.68h1.23v7.8h.97c.1,0,.17,.02,.21,.07,.04,.04,.06,.11,.06,.21v.32c0,.19-.09,.29-.27,.29h-2.2Z"/><path class="cls-1" d="M223.71,83.87h-1.99c-.1,0-.17-.02-.22-.06-.02-.07-.03-.14-.03-.23v-.33c0-.08,.01-.15,.03-.22,.06-.03,.13-.04,.22-.04h1.99v.88Z"/><path class="cls-1" d="M225.25,83.87h-1.99c-.1,0-.17-.02-.22-.06-.02-.07-.03-.14-.03-.23v-.33c0-.08,.01-.15,.03-.22,.06-.03,.13-.04,.22-.04h1.99v.88Z"/><path class="cls-1" d="M226.8,83.87h-1.99c-.1,0-.17-.02-.22-.06-.02-.07-.03-.14-.03-.23v-.33c0-.08,.01-.15,.03-.22,.06-.03,.13-.04,.22-.04h1.99v.88Z"/><path class="cls-1" d="M228.34,83.87h-1.99c-.1,0-.17-.02-.22-.06-.02-.07-.03-.14-.03-.23v-.33c0-.08,.01-.15,.03-.22,.06-.03,.13-.04,.22-.04h1.99v.88Z"/><path class="cls-1" d="M229.88,83.87h-1.99c-.1,0-.17-.02-.22-.06-.02-.07-.03-.14-.03-.23v-.33c0-.08,.01-.15,.03-.22,.06-.03,.13-.04,.22-.04h1.99v.88Z"/><path class="cls-1" d="M231.42,83.87h-1.99c-.1,0-.17-.02-.22-.06-.02-.07-.03-.14-.03-.23v-.33c0-.08,.01-.15,.03-.22,.06-.03,.13-.04,.22-.04h1.99v.88Z"/><path class="cls-1" d="M232.96,83.87h-1.99c-.1,0-.17-.02-.22-.06-.02-.07-.03-.14-.03-.23v-.33c0-.08,.01-.15,.03-.22,.06-.03,.13-.04,.22-.04h1.99v.88Z"/><path class="cls-1" d="M232.62,83.87c-.1,0-.17-.03-.19-.08-.03-.05-.04-.12-.04-.2v-.36c0-.07,.01-.13,.04-.18,.03-.04,.09-.07,.19-.07h1.22c-.06-.18-.1-.37-.12-.55-.02-.18-.03-.37-.03-.56,0-.46,.08-.86,.24-1.22,.16-.36,.37-.66,.63-.91,.26-.25,.57-.44,.91-.57,.34-.13,.71-.2,1.09-.2h1.59c.06,.46,.11,.93,.15,1.42,.04,.49,.07,.99,.07,1.5,0,.18,0,.36-.01,.54,0,.18-.02,.36-.03,.55h1.12c.1,0,.17,.02,.21,.07,.04,.04,.06,.11,.06,.21v.32c0,.19-.09,.29-.28,.29h-6.83Zm2.15-6.81c0-.17,.06-.32,.19-.44,.13-.12,.28-.19,.45-.19s.33,.06,.46,.19c.13,.13,.19,.27,.19,.44,0,.18-.06,.34-.19,.46-.13,.12-.28,.19-.46,.19s-.33-.06-.45-.19c-.13-.12-.19-.28-.19-.46m2.28,5.93c.04-.23,.06-.46,.08-.69,.02-.22,.03-.45,.03-.67,0-.31-.01-.61-.04-.9-.03-.29-.06-.58-.1-.87h-.64c-.14,0-.29,.03-.46,.09-.17,.06-.33,.16-.47,.3-.15,.14-.27,.32-.37,.55-.1,.23-.16,.51-.16,.86,0,.23,.02,.45,.07,.68,.04,.22,.12,.44,.22,.66h1.85Zm-.49-5.93c0-.17,.06-.32,.19-.44,.13-.12,.28-.19,.45-.19s.34,.06,.46,.19c.12,.13,.18,.27,.18,.44,0,.18-.06,.34-.18,.46-.12,.12-.27,.19-.46,.19s-.33-.06-.45-.19c-.13-.12-.19-.28-.19-.46"/><path class="cls-1" d="M239.24,83.87c-.1,0-.17-.03-.19-.08-.03-.05-.04-.12-.04-.2v-.36c0-.07,.01-.13,.04-.18,.03-.04,.09-.07,.19-.07h1.93c-.33-.32-.6-.66-.82-1.02-.21-.36-.32-.76-.32-1.19,0-.39,.08-.73,.23-1.01,.15-.28,.35-.52,.59-.71,.24-.19,.52-.33,.83-.42,.31-.09,.63-.14,.95-.14,.21,0,.44,.02,.7,.07,.26,.05,.48,.12,.67,.2v.88c-.15-.07-.32-.13-.52-.17-.2-.04-.35-.06-.46-.06-.23,0-.45,.03-.66,.08-.21,.05-.39,.15-.55,.27-.16,.13-.28,.29-.38,.49-.1,.2-.14,.44-.14,.72,0,.21,.03,.41,.1,.61,.07,.2,.15,.39,.25,.56,.1,.17,.22,.33,.36,.47,.14,.14,.27,.27,.4,.37h2.69c.11,0,.19,.02,.23,.07,.04,.04,.06,.11,.06,.21v.32c0,.19-.1,.29-.29,.29h-5.85Z"/><path class="cls-1" d="M244.89,83.87c-.1,0-.17-.03-.19-.08-.03-.05-.04-.12-.04-.2v-.36c0-.07,.01-.13,.04-.18,.03-.04,.09-.07,.19-.07h.93c.23,0,.38-.05,.45-.16,.07-.11,.1-.31,.1-.6v-7.04h1.23v6.38c0,.18,.02,.36,.05,.53,.03,.17,.09,.32,.18,.46,.08,.13,.2,.24,.34,.31,.14,.08,.31,.12,.52,.12h.52c.11,0,.18,.02,.23,.07,.04,.04,.06,.11,.06,.21v.32c0,.19-.1,.29-.29,.29h-.22c-.39,0-.7-.12-.94-.37-.23-.25-.39-.56-.46-.93-.02,.19-.07,.37-.13,.53-.07,.16-.16,.3-.28,.41-.12,.11-.28,.2-.46,.26-.19,.06-.42,.09-.7,.09h-1.11Z"/><path class="cls-1" d="M248.98,83.87c-.1,0-.17-.03-.19-.08-.03-.05-.04-.12-.04-.2v-.36c0-.07,.01-.13,.04-.18,.03-.04,.09-.07,.19-.07h1.5v-7.8h1.25v8.68h-2.74Z"/></g></g></g></g></svg>