<?xml version="1.0" encoding="UTF-8"?><svg id="Layer_2" xmlns="http://www.w3.org/2000/svg" viewBox="0 0 60.12 55.19"><defs><style>.cls-1{fill:none;stroke:#fff;stroke-width:1.04px;}</style></defs><g id="Layer_1-2"><g><g><rect class="cls-1" x=".52" y=".52" width="59.09" height="54.15"/><path class="cls-1" d="M.49,22.76s2.37,2.01,19.06-7.26c15.96-8.86,38.1,2.5,40.02,6.38"/></g><path class="cls-1" d="M.3,38.28c4.81-.8,5.93,1.51,11.51,.05,6.1-1.59,5.33-4.51,11.43-6.1,6.1-1.59,6.88,1.33,12.98-.26,6.1-1.59,5.33-4.51,11.43-6.1,5.76-1.5,6.78,1.01,11.99-.03M.48,44.82c6.1-1.59,6.88,1.33,12.98-.26,6.1-1.59,5.33-4.51,11.43-6.1,6.1-1.59,6.88,1.33,12.98-.26,6.1-1.59,5.33-4.51,11.43-6.1,5.05-1.32,6.45,.45,10.24,.2"/><rect class="cls-1" x=".52" y=".52" width="59.09" height="54.15"/></g></g></svg>