<?xml version="1.0" encoding="UTF-8"?><svg id="Layer_2" xmlns="http://www.w3.org/2000/svg" viewBox="0 0 40.97 31.51"><defs><style>.cls-1{fill:none;stroke:#fff;stroke-miterlimit:10;stroke-width:.55px;}</style></defs><g id="Layer_1-2"><path class="cls-1" d="M15.74,21.8H4.22m32.53,0h-11.52m10.41-12.73L32.77,.27m-2.18,8.8L27.87,.27m-2.33,8.8L23.99,.27m-3.51,8.8V.27m-5.05,8.8L17.22,.27m-6.84,8.8L13.35,.27M5.33,9.07L9.52,.27M.27,9.07H40.7m-35.37,0c0,1.32-1.14,2.39-2.53,2.39S.27,10.39,.27,9.07L5.99,.27h30.76l3.95,8.8c0,1.32-1.14,2.39-2.53,2.39s-2.53-1.08-2.53-2.39c0,1.32-1.14,2.39-2.53,2.39s-2.53-1.08-2.53-2.39c0,1.32-1.14,2.39-2.53,2.39s-2.53-1.08-2.53-2.39c0,1.32-1.14,2.39-2.53,2.39s-2.53-1.08-2.53-2.39c0,1.32-1.14,2.39-2.53,2.39s-2.53-1.08-2.53-2.39c0,1.32-1.14,2.39-2.53,2.39s-2.53-1.08-2.53-2.39c0,1.32-1.14,2.39-2.53,2.39s-2.53-1.08-2.53-2.39ZM25.23,31.23V15.85H15.74v15.38M4.22,11.04V31.23H36.75V11.05"/></g></svg>