<?xml version="1.0" encoding="UTF-8"?><svg id="Layer_2" xmlns="http://www.w3.org/2000/svg" viewBox="0 0 53.29 44"><defs><style>.cls-1{fill:none;stroke:#fff;stroke-miterlimit:10;stroke-width:.67px;}</style></defs><g id="Layer_1-2"><path class="cls-1" d="M31.4,19.12h14.68m-14.68-4.1h14.68m-14.68-4.1h14.68m-14.68-4.1h14.68m5.53-4.03c0-1.36-1.22-2.46-2.73-2.46s-2.73,1.1-2.73,2.46V21.51M36.92,2.79c0-1.36-1.22-2.46-2.73-2.46s-2.73,1.1-2.73,2.46V21.64M0,39.12c3.81,0,3.81,4.55,7.61,4.55s3.81-4.55,7.61-4.55,3.81,4.55,7.61,4.55,3.81-4.55,7.61-4.55,3.81,4.55,7.61,4.55,3.81-4.55,7.61-4.55,3.81,4.55,7.61,4.55M0,30.36c3.81,0,3.81,4.55,7.61,4.55s3.81-4.55,7.61-4.55,3.81,4.55,7.61,4.55,3.81-4.55,7.61-4.55,3.81,4.55,7.61,4.55,3.81-4.55,7.61-4.55,3.81,4.55,7.61,4.55M0,21.6c3.81,0,3.81,4.55,7.61,4.55s3.81-4.55,7.61-4.55,3.81,4.55,7.61,4.55,3.81-4.55,7.61-4.55,3.81,4.55,7.61,4.55,3.81-4.55,7.61-4.55,3.81,4.55,7.61,4.55"/></g></svg>