<?xml version="1.0" encoding="UTF-8"?><svg id="Layer_2" xmlns="http://www.w3.org/2000/svg" viewBox="0 0 42.87 27.9"><defs><style>.cls-1{fill:none;stroke:#fff;stroke-miterlimit:10;stroke-width:.55px;}</style></defs><g id="Layer_1-2"><path class="cls-1" d="M33.38,6.99s3.32,.17,3.32-3.05-3.1-3.1-3.1-3.1h-5.86l3.36,12.63,3.89,6.54M9.62,.27h7.04m2.99,18.9L13.11,.27M7.87,20.01L15.48,7.32h13.91l-7.82,12m1.46,2.33c0,1.43-1.16,2.6-2.59,2.6s-2.59-1.16-2.59-2.6,1.16-2.6,2.59-2.6,2.59,1.16,2.59,2.6Zm19.58-1.64c0,4.21-3.4,7.61-7.6,7.61s-7.6-3.41-7.6-7.61,3.4-7.61,7.6-7.61,7.6,3.41,7.6,7.61Zm-27.12,0c0,4.21-3.4,7.61-7.6,7.61S.27,24.22,.27,20.01s3.4-7.61,7.6-7.61,7.6,3.41,7.6,7.61Z"/></g></svg>