<?xml version="1.0" encoding="UTF-8"?><svg id="Layer_2" xmlns="http://www.w3.org/2000/svg" viewBox="0 0 1790.84 2123.97"><defs><style>.cls-1{fill:#fff;}.cls-2,.cls-3,.cls-4{fill:#1b1a12;}.cls-5{font-family:Montserrat-SemiBold, Montserrat;font-size:16px;}.cls-6{letter-spacing:-.02em;}.cls-7{fill:#1c1b14;font-family:Montserrat-Thin, Montserrat;font-size:9.6px;font-variation-settings:'wght' 100;}.cls-8{font-family:Montserrat-Light, Montserrat;font-size:13.13px;}.cls-9{letter-spacing:-.03em;}.cls-10{letter-spacing:0em;}.cls-11{letter-spacing:0em;}.cls-12{letter-spacing:-.02em;}.cls-13{fill:none;stroke:#fff;stroke-miterlimit:10;stroke-width:.55px;}.cls-14{letter-spacing:0em;}.cls-15{letter-spacing:-.01em;}.cls-3{font-family:MontserratRoman-Regular, Montserrat;font-size:11px;font-variation-settings:'wght' 400;}.cls-16{letter-spacing:0em;}.cls-4{font-family:Montserrat-Bold, Montserrat;font-size:13px;}</style></defs><g id="Layer_1-2"><text class="cls-4" transform="translate(0 2119.62)"><tspan x="0" y="0" xml:space="preserve">  ABOUT Q PROPERTIES</tspan></text><g><text class="cls-4" transform="translate(249.46 2119.96)"><tspan x="0" y="0">LEARN MORE</tspan></text><text class="cls-7" transform="translate(231.92 2087.05)"><tspan x="0" y="0">R</tspan><tspan class="cls-10" x="6.87" y="0">E</tspan><tspan class="cls-14" x="13.27" y="0">GI</tspan><tspan class="cls-16" x="23.45" y="0">S</tspan><tspan x="29.13" y="0">TER </tspan><tspan class="cls-9" x="50.07" y="0">Y</tspan><tspan x="55.63" y="0">OUR INTERE</tspan><tspan class="cls-16" x="116.08" y="0">S</tspan><tspan x="121.76" y="0">T</tspan></text></g><g><text class="cls-4" transform="translate(467.19 2120.51)"><tspan x="0" y="0">DOWNLOAD</tspan></text><text class="cls-7" transform="translate(436.9 2087.15)"><tspan x="0" y="0">D</tspan><tspan class="cls-6" x="7.93" y="0">O</tspan><tspan class="cls-12" x="15.76" y="0">W</tspan><tspan x="25.98" y="0">N</tspan><tspan class="cls-15" x="33.81" y="0">L</tspan><tspan class="cls-11" x="39.25" y="0">O</tspan><tspan x="47.19" y="0">AD OUR BROCHURE</tspan></text></g><path class="cls-13" d="M225.06,926.18h-10.79m14.13,0h-17.47m17.47-5.04h-17.47m4.08-7.56c0,2.56,2.16,4.63,4.81,4.63s4.81-2.07,4.81-4.63-2.15-4.63-4.81-4.63-4.81,2.07-4.81,4.63Zm-4.08,7.52s0,0,0,.01c-.25,.01-5.7,.34-8.61,5.47-2.98,5.25-5.16,8.72-13.24,11.45v-5.86s4.36-1.51,6.6-6.67c2.23-5.15,6.78-10.46,15.26-10.06v5.65Zm17.61-15.7h-17.38c-.91,0-1.3-1.11-.58-1.64l8.53-6.33c.34-.25,.81-.25,1.15,0l8.85,6.33c.74,.53,.35,1.65-.57,1.65Zm-.14,0v31.12m-3.34,0v-15.38m-14.13-15.74v31.12m3.34,0v-15.38"/><g><text class="cls-3" transform="translate(1081.84 9.35)"><tspan x="0" y="0">ENJOY A LIFE OF SIMPLICITY AND EQUILIBRIUM </tspan><tspan x="0" y="13.2">IN HOMES THAT BRING TOGETHER ORIENTAL </tspan><tspan x="0" y="26.4" xml:space="preserve">INFLUENCES AND A CONTEMPORARY STYLE.  </tspan></text><text class="cls-2" transform="translate(992.97 18.03)"><tspan class="cls-5"><tspan x="0" y="0">ZEN</tspan></tspan><tspan class="cls-8"><tspan x="0" y="14.25">DESIGN</tspan></tspan></text><text class="cls-1" transform="translate(1523.9 18.12)"><tspan class="cls-5"><tspan x="0" y="0">MINIMAL </tspan></tspan><tspan class="cls-8"><tspan x="0" y="14.25">DESIGN</tspan></tspan></text><text class="cls-1" transform="translate(1624.48 18.03)"><tspan class="cls-5"><tspan x="0" y="0">CUBIC </tspan></tspan><tspan class="cls-8"><tspan x="0" y="14.25">DESIGN</tspan></tspan></text><text class="cls-1" transform="translate(1726.56 18.03)"><tspan class="cls-5"><tspan x="0" y="0">FRAME </tspan></tspan><tspan class="cls-8"><tspan x="0" y="14.25">DESIGN</tspan></tspan></text></g></g></svg>