<?xml version="1.0" encoding="UTF-8"?><svg id="Layer_2" xmlns="http://www.w3.org/2000/svg" viewBox="0 0 1790.84 2123.97"><defs><style>.cls-1{fill:#fff;}.cls-2,.cls-3,.cls-4{fill:#1b1a12;}.cls-5{font-family:Montserrat-SemiBold, Montserrat;font-size:16px;}.cls-6{letter-spacing:-.02em;}.cls-7{fill:#1c1b14;font-family:Montserrat-Thin, Montserrat;font-size:9.6px;font-variation-settings:'wght' 100;}.cls-8{font-family:Montserrat-Light, Montserrat;font-size:13.13px;}.cls-9{letter-spacing:-.03em;}.cls-10{letter-spacing:0em;}.cls-11{letter-spacing:0em;}.cls-12{letter-spacing:-.02em;}.cls-13{fill:none;stroke:#fff;stroke-miterlimit:10;stroke-width:.55px;}.cls-14{letter-spacing:0em;}.cls-15{letter-spacing:-.01em;}.cls-3{font-family:MontserratRoman-Regular, Montserrat;font-size:11px;font-variation-settings:'wght' 400;}.cls-16{letter-spacing:0em;}.cls-4{font-family:Montserrat-Bold, Montserrat;font-size:13px;}</style></defs><g id="Layer_1-2"><text class="cls-4" transform="translate(0 2119.62)"><tspan x="0" y="0" xml:space="preserve">  ABOUT Q PROPERTIES</tspan></text><g><text class="cls-4" transform="translate(249.46 2119.96)"><tspan x="0" y="0">LEARN MORE</tspan></text><text class="cls-7" transform="translate(231.92 2087.05)"><tspan x="0" y="0">R</tspan><tspan class="cls-10" x="6.87" y="0">E</tspan><tspan class="cls-14" x="13.27" y="0">GI</tspan><tspan class="cls-16" x="23.45" y="0">S</tspan><tspan x="29.13" y="0">TER </tspan><tspan class="cls-9" x="50.07" y="0">Y</tspan><tspan x="55.63" y="0">OUR INTERE</tspan><tspan class="cls-16" x="116.08" y="0">S</tspan><tspan x="121.76" y="0">T</tspan></text></g><g><text class="cls-4" transform="translate(467.19 2120.51)"><tspan x="0" y="0">DOWNLOAD</tspan></text><text class="cls-7" transform="translate(436.9 2087.15)"><tspan x="0" y="0">D</tspan><tspan class="cls-6" x="7.93" y="0">O</tspan><tspan class="cls-12" x="15.76" y="0">W</tspan><tspan x="25.98" y="0">N</tspan><tspan class="cls-15" x="33.81" y="0">L</tspan><tspan class="cls-11" x="39.25" y="0">O</tspan><tspan x="47.19" y="0">AD OUR BROCHURE</tspan></text></g><path class="cls-13" d="M379.58,770.49h-11.52m32.53,0h-11.52m10.41-12.73l-2.87-8.8m-2.18,8.8l-2.72-8.8m-2.33,8.8l-1.55-8.8m-3.51,8.8v-8.8m-5.05,8.8l1.79-8.8m-6.84,8.8l2.97-8.8m-8.02,8.8l4.2-8.8m-9.25,8.8h40.43m-35.37,0c0,1.32-1.14,2.39-2.53,2.39s-2.53-1.08-2.53-2.39l5.72-8.8h30.76l3.95,8.8c0,1.32-1.14,2.39-2.53,2.39s-2.53-1.08-2.53-2.39c0,1.32-1.14,2.39-2.53,2.39s-2.53-1.08-2.53-2.39c0,1.32-1.14,2.39-2.53,2.39s-2.53-1.08-2.53-2.39c0,1.32-1.14,2.39-2.53,2.39s-2.53-1.08-2.53-2.39c0,1.32-1.14,2.39-2.53,2.39s-2.53-1.08-2.53-2.39c0,1.32-1.14,2.39-2.53,2.39s-2.53-1.08-2.53-2.39c0,1.32-1.14,2.39-2.53,2.39s-2.53-1.08-2.53-2.39Zm19.91,22.16v-15.38h-9.49v15.38m-11.52-20.19v20.19h32.53v-20.19"/><g><text class="cls-3" transform="translate(1081.84 9.35)"><tspan x="0" y="0">ENJOY A LIFE OF SIMPLICITY AND EQUILIBRIUM </tspan><tspan x="0" y="13.2">IN HOMES THAT BRING TOGETHER ORIENTAL </tspan><tspan x="0" y="26.4" xml:space="preserve">INFLUENCES AND A CONTEMPORARY STYLE.  </tspan></text><text class="cls-2" transform="translate(992.97 18.03)"><tspan class="cls-5"><tspan x="0" y="0">ZEN</tspan></tspan><tspan class="cls-8"><tspan x="0" y="14.25">DESIGN</tspan></tspan></text><text class="cls-1" transform="translate(1523.9 18.12)"><tspan class="cls-5"><tspan x="0" y="0">MINIMAL </tspan></tspan><tspan class="cls-8"><tspan x="0" y="14.25">DESIGN</tspan></tspan></text><text class="cls-1" transform="translate(1624.48 18.03)"><tspan class="cls-5"><tspan x="0" y="0">CUBIC </tspan></tspan><tspan class="cls-8"><tspan x="0" y="14.25">DESIGN</tspan></tspan></text><text class="cls-1" transform="translate(1726.56 18.03)"><tspan class="cls-5"><tspan x="0" y="0">FRAME </tspan></tspan><tspan class="cls-8"><tspan x="0" y="14.25">DESIGN</tspan></tspan></text></g></g></svg>