<?xml version="1.0" encoding="UTF-8"?><svg id="Layer_2" xmlns="http://www.w3.org/2000/svg" viewBox="0 0 44.25 39.95"><defs><style>.cls-1{fill:none;stroke:#fff;stroke-miterlimit:10;stroke-width:.55px;}</style></defs><g id="Layer_1-2"><g><path class="cls-1" d="M23.66,32.1c0,.86-.7,1.56-1.56,1.56s-1.56-.7-1.56-1.56,.7-1.56,1.56-1.56,1.56,.7,1.56,1.56Z"/><path class="cls-1" d="M28.11,29.83c0,.86-.7,1.56-1.56,1.56s-1.56-.7-1.56-1.56,.7-1.56,1.56-1.56,1.56,.7,1.56,1.56Z"/><path class="cls-1" d="M19.26,29.83c0,.86-.7,1.56-1.56,1.56s-1.56-.7-1.56-1.56,.7-1.56,1.56-1.56,1.56,.7,1.56,1.56Z"/><path class="cls-1" d="M14.64,37.73v-2.81c0-1.68,1.37-3.05,3.06-3.05,.84,0,1.6,.35,2.15,.9,.45,.44,.76,1.02,.86,1.66"/><path class="cls-1" d="M23.53,34.44c.23-1.45,1.5-2.58,3.02-2.58,.84,0,1.6,.35,2.16,.9,.56,.55,.9,1.31,.9,2.15v2.81"/><path class="cls-1" d="M19.04,39.95v-2.81c0-1.68,1.37-3.05,3.06-3.05s3.06,1.37,3.06,3.05v2.81"/><line class="cls-1" x1="22.06" y1="10.4" x2="22.06" y2="21.38"/><line class="cls-1" x1="8.2" y1="21.38" x2="36.17" y2="21.38"/><polyline class="cls-1" points="39.06 17.66 39.06 35.22 31.44 35.22"/><polyline class="cls-1" points="4.72 17.66 4.72 35.22 12.34 35.22"/><polyline class="cls-1" points=".15 15.08 22.06 .33 44.1 15.08"/></g></g></svg>