<?xml version="1.0" encoding="UTF-8"?><svg id="Layer_2" xmlns="http://www.w3.org/2000/svg" viewBox="0 0 40.97 41.45"><defs><style>.cls-1{fill:none;stroke:#fff;stroke-miterlimit:10;stroke-width:.55px;}</style></defs><g id="Layer_1-2"><path class="cls-1" d="M36.26,29.22h-10.79m14.13,0H22.13m17.47-5.04H22.13m4.08-7.56c0,2.56,2.16,4.63,4.81,4.63s4.81-2.07,4.81-4.63-2.15-4.63-4.81-4.63-4.81,2.07-4.81,4.63Zm-4.08,7.52s0,0,0,.01c-.25,.01-5.7,.34-8.61,5.47-2.98,5.25-5.16,8.72-13.24,11.45v-5.86s4.36-1.51,6.6-6.67c2.23-5.15,6.78-10.46,15.26-10.06v5.65Zm17.61-15.7H22.36c-.91,0-1.3-1.11-.58-1.64L30.31,.46c.34-.25,.81-.25,1.15,0l8.85,6.33c.74,.53,.35,1.65-.57,1.65Zm-.14,0v31.12m-3.34,0v-15.38m-14.13-15.74v31.12m3.34,0v-15.38"/></g></svg>