<?xml version="1.0" encoding="UTF-8"?><svg id="Layer_2" xmlns="http://www.w3.org/2000/svg" viewBox="0 0 47.63 37.2"><defs><style>.cls-1{fill:none;stroke:#fff;stroke-miterlimit:10;stroke-width:.55px;}</style></defs><g id="Layer_1-2"><g><path class="cls-1" d="M0,24.3c4.76,0,4.76,2.4,9.53,2.4s4.76-2.4,9.52-2.4,4.76,2.4,9.53,2.4,4.76-2.4,9.53-2.4,4.76,2.4,9.53,2.4M0,29.42c4.76,0,4.76,2.4,9.53,2.4s4.76-2.4,9.52-2.4,4.76,2.4,9.53,2.4,4.76-2.4,9.53-2.4,4.76,2.4,9.53,2.4M0,34.54c4.76,0,4.76,2.4,9.53,2.4s4.76-2.4,9.52-2.4,4.76,2.4,9.53,2.4,4.76-2.4,9.53-2.4,4.76,2.4,9.53,2.4"/><path class="cls-1" d="M25.6,5.54l-2.7-2.76m10.21,2.76l2.7-2.76m-6.55,.32V0m-3.66,13.52l-2.7,2.76m-.12-6.75h-3.99m14.32,3.99l2.7,2.76m0-6.75h3.68m-10.23,6.49v3.63m5.49-10.12c0,3.1-2.46,5.6-5.49,5.6s-5.49-2.51-5.49-5.6,2.46-5.6,5.49-5.6,5.49,2.51,5.49,5.6Z"/></g></g></svg>